%TF.GenerationSoftware,Altium Limited,Altium Designer,25.8.1 (18)*%
G04 Layer_Physical_Order=1*
G04 Layer_Color=255*
%FSLAX45Y45*%
%MOMM*%
%TF.SameCoordinates,59470FF0-CD15-45DD-BB61-DC51C1D221A1*%
%TF.FilePolarity,Positive*%
%TF.FileFunction,Copper,L1,Top,Signal*%
%TF.Part,Single*%
G01*
G75*
%TA.AperFunction,SMDPad,CuDef*%
%ADD10R,0.45000X0.45000*%
%ADD11R,1.00000X1.35000*%
%ADD12R,0.47247X0.51535*%
%ADD13R,1.70000X0.60000*%
%ADD14R,2.80000X1.00000*%
%ADD15R,1.80000X1.20000*%
%ADD16R,1.55000X0.60000*%
%ADD17R,0.85000X1.30000*%
%ADD18R,0.65000X0.70000*%
%ADD19R,0.70000X0.65000*%
%ADD20R,0.90000X0.75000*%
G04:AMPARAMS|DCode=21|XSize=0.23928mm|YSize=0.93106mm|CornerRadius=0.11964mm|HoleSize=0mm|Usage=FLASHONLY|Rotation=0.000|XOffset=0mm|YOffset=0mm|HoleType=Round|Shape=RoundedRectangle|*
%AMROUNDEDRECTD21*
21,1,0.23928,0.69178,0,0,0.0*
21,1,0.00000,0.93106,0,0,0.0*
1,1,0.23928,0.00000,-0.34589*
1,1,0.23928,0.00000,-0.34589*
1,1,0.23928,0.00000,0.34589*
1,1,0.23928,0.00000,0.34589*
%
%ADD21ROUNDEDRECTD21*%
G04:AMPARAMS|DCode=22|XSize=0.93106mm|YSize=0.23928mm|CornerRadius=0.11964mm|HoleSize=0mm|Usage=FLASHONLY|Rotation=0.000|XOffset=0mm|YOffset=0mm|HoleType=Round|Shape=RoundedRectangle|*
%AMROUNDEDRECTD22*
21,1,0.93106,0.00000,0,0,0.0*
21,1,0.69178,0.23928,0,0,0.0*
1,1,0.23928,0.34589,0.00000*
1,1,0.23928,-0.34589,0.00000*
1,1,0.23928,-0.34589,0.00000*
1,1,0.23928,0.34589,0.00000*
%
%ADD22ROUNDEDRECTD22*%
%ADD23R,0.93106X0.23928*%
%ADD24R,2.75000X2.75000*%
%ADD25R,0.52000X0.52000*%
%ADD26R,0.80000X0.90000*%
%ADD27R,0.55000X0.60000*%
%ADD28R,0.45000X0.50000*%
%ADD29R,1.30000X0.85000*%
%ADD30R,2.20000X2.30000*%
%ADD31R,2.20000X2.50000*%
%ADD32R,0.45000X0.45000*%
%ADD33R,0.60000X0.55000*%
%ADD34R,0.75000X0.90000*%
%TA.AperFunction,Conductor*%
%ADD35C,0.25400*%
%TA.AperFunction,ComponentPad*%
%ADD36C,1.10000*%
%TA.AperFunction,ViaPad*%
%ADD37C,1.27000*%
%ADD38C,0.76200*%
D10*
X1890000Y2350000D02*
D03*
X1960000D02*
D03*
D11*
X1720000Y1200000D02*
D03*
X1900000D02*
D03*
D12*
X1800000Y900000D02*
D03*
Y975713D02*
D03*
X2350000Y1449287D02*
D03*
Y1525000D02*
D03*
D13*
X4242500Y2312500D02*
D03*
Y2187500D02*
D03*
Y2062500D02*
D03*
Y1937500D02*
D03*
D14*
X4577500Y1752500D02*
D03*
Y2497500D02*
D03*
D15*
X4767500Y920000D02*
D03*
Y1280000D02*
D03*
D16*
X4380000Y1050000D02*
D03*
Y1150000D02*
D03*
D17*
X2225000Y825000D02*
D03*
X2395000D02*
D03*
X2765000D02*
D03*
X2935000D02*
D03*
D18*
X3725000Y2250000D02*
D03*
Y2345000D02*
D03*
D19*
X3145000Y2000000D02*
D03*
X3447500Y550000D02*
D03*
X2872500Y2150000D02*
D03*
X2777500D02*
D03*
X3352500Y550000D02*
D03*
X3052500Y1850000D02*
D03*
X3147500D02*
D03*
X3050000Y2000000D02*
D03*
D20*
X3675000Y1075000D02*
D03*
Y1195000D02*
D03*
D21*
X2800000Y1524053D02*
D03*
X2700000D02*
D03*
X2650000D02*
D03*
X2750000D02*
D03*
X2850000D02*
D03*
Y1125947D02*
D03*
X2800000D02*
D03*
X2750000D02*
D03*
X2700000D02*
D03*
X2650000D02*
D03*
D22*
X2949053Y1325000D02*
D03*
Y1425000D02*
D03*
Y1375000D02*
D03*
Y1275000D02*
D03*
Y1225000D02*
D03*
X2550947D02*
D03*
Y1275000D02*
D03*
Y1325000D02*
D03*
Y1375000D02*
D03*
D23*
Y1425000D02*
D03*
D24*
X2750000Y1325000D02*
D03*
D25*
X2350000Y1210000D02*
D03*
Y1290000D02*
D03*
D26*
X2500000Y575000D02*
D03*
X2350000D02*
D03*
D27*
X2550000Y757500D02*
D03*
Y842500D02*
D03*
D28*
X2750000Y450000D02*
D03*
X2845000D02*
D03*
D29*
X2075000Y915000D02*
D03*
Y1085000D02*
D03*
D30*
X1275000Y2360000D02*
D03*
X875000Y2380000D02*
D03*
X575000D02*
D03*
D31*
X1425000Y1680000D02*
D03*
D32*
X2150000Y1360000D02*
D03*
Y1290000D02*
D03*
D33*
X2625000Y600000D02*
D03*
X2710000D02*
D03*
D34*
X2835000Y1975000D02*
D03*
X2715000D02*
D03*
D35*
X3525000Y1712500D02*
X3587500Y1775000D01*
X3525000Y1400000D02*
Y1712500D01*
X3587500Y1775000D02*
X4375000D01*
X4550000Y1950000D01*
X2850000Y1125947D02*
X3250947D01*
X3525000Y1400000D01*
X3500000Y1850000D02*
X4325000D01*
X4475000Y2000000D01*
X3450000Y1800000D02*
X3500000Y1850000D01*
X3375000Y1425000D02*
Y2025000D01*
X3225000Y1275000D02*
X3375000Y1425000D01*
Y2025000D02*
X3475000Y2125000D01*
X3450000Y1425000D02*
Y1800000D01*
X3250000Y1225000D02*
X3450000Y1425000D01*
X3475000Y2125000D02*
X3975000D01*
X4037500Y2062500D02*
X4242500D01*
X3975000Y2125000D02*
X4037500Y2062500D01*
X2425000Y685121D02*
X2439879Y700000D01*
X2492500D01*
X2425000Y425000D02*
Y685121D01*
Y425000D02*
X2575000D01*
X2250000D02*
X2425000D01*
X2200000Y475000D02*
X2250000Y425000D01*
X2575000D02*
X2600000Y450000D01*
X2750000D01*
X2847618Y572619D02*
X2935000Y660000D01*
Y825000D01*
X2847618Y455118D02*
Y572619D01*
X2935000Y825000D02*
Y940000D01*
X3875000Y1225000D02*
X4155000D01*
X4230000Y1150000D01*
X4380000D01*
X2330200Y1044800D02*
X2619800D01*
X2075000Y1085000D02*
X2290000D01*
X2330200Y1044800D01*
X2619800D02*
X2650000Y1075000D01*
Y1125947D01*
X3250000Y2250000D02*
X3725000D01*
X2875000Y2150000D02*
X2975000Y2250000D01*
X3250000D01*
Y2102500D02*
Y2250000D01*
X3147500Y2000000D02*
X3250000Y2102500D01*
X3145000Y2000000D02*
X3147500D01*
X925000Y2575000D02*
X1725000D01*
X875000Y850000D02*
Y2380000D01*
Y2525000D01*
X925000Y2575000D01*
X1725000D02*
X1775000Y2525000D01*
Y1850000D02*
X2000000Y1625000D01*
X1775000Y1850000D02*
Y2525000D01*
X2000000Y1350000D02*
Y1625000D01*
Y1350000D02*
X2060000Y1290000D01*
X2150000D01*
X1960000Y2160001D02*
Y2350000D01*
X2225000Y1450000D02*
Y1895001D01*
X1960000Y2160001D02*
X2225000Y1895001D01*
Y1450000D02*
X2275000Y1400000D01*
X2492829D01*
X3327500Y550000D02*
X3352500D01*
X2925000Y325000D02*
X3150000Y550000D01*
X2075000Y325000D02*
X2925000D01*
X3150000Y550000D02*
X3327500D01*
X1950000Y450000D02*
X2075000Y325000D01*
X1275000Y450000D02*
X1950000D01*
X875000Y850000D02*
X1275000Y450000D01*
X4475000Y2325000D02*
X4550000Y2250000D01*
X4255000Y2325000D02*
X4475000D01*
X4550000Y1950000D02*
Y2250000D01*
X2949053Y1225000D02*
X3250000D01*
X3352500Y530200D02*
Y550000D01*
X2800000Y1600000D02*
X2825000Y1625000D01*
Y1750000D01*
X2800000Y1524053D02*
Y1600000D01*
X2864879Y1575000D02*
X2934559D01*
X2977470Y1617911D01*
X2850000Y1560121D02*
X2864879Y1575000D01*
X2850000Y1524053D02*
Y1560121D01*
X2715000Y1707897D02*
X2750000Y1672897D01*
Y1524053D02*
Y1672897D01*
X2567884Y1732116D02*
X2700000Y1600000D01*
X2567884Y1732116D02*
Y1807116D01*
X2700000Y1524053D02*
Y1600000D01*
X2558942Y1816058D02*
X2567884Y1807116D01*
X2395000Y960121D02*
X2409879Y975000D01*
X2625000D01*
X2700000Y1050000D01*
X2395000Y825000D02*
Y960121D01*
X3275000Y1646091D02*
Y1950000D01*
X3145000Y2000000D02*
X3225000D01*
X3275000Y1950000D01*
X3675000Y700000D02*
Y1075000D01*
X3525000Y550000D02*
X3675000Y700000D01*
X3447500Y550000D02*
X3525000D01*
X4315200Y1032700D02*
X4332500Y1050000D01*
X4275000Y975000D02*
X4315200Y1015200D01*
X4100000Y975000D02*
X4275000D01*
X4332500Y1050000D02*
X4350000D01*
X4315200Y1015200D02*
Y1032700D01*
X3222530Y1597530D02*
X3225000Y1600000D01*
X4000000Y1075000D02*
X4100000Y975000D01*
X3475000Y900000D02*
X3492500D01*
X3667500Y1075000D01*
X3675000D01*
X3653192Y1975000D02*
X3925000D01*
X3962500Y1937500D02*
X4242500D01*
X3925000Y1975000D02*
X3962500Y1937500D01*
X3121583Y1597530D02*
X3222530D01*
X3225000Y1600000D02*
X3228908D01*
X3275000Y1646091D01*
X3675000Y1075000D02*
X4000000D01*
X3242214Y1589407D02*
X3300000Y1531621D01*
X3232062Y1589407D02*
X3242214D01*
X3300000Y1425000D02*
Y1531621D01*
X3049053Y1525000D02*
X3121583Y1597530D01*
X3200000Y1325000D02*
X3300000Y1425000D01*
X3049053Y1525000D02*
X3049053D01*
X3025000Y1500947D02*
X3049053Y1525000D01*
X3025000Y1439879D02*
Y1500947D01*
X2872500Y2150000D02*
X2875000D01*
X2949053Y1425000D02*
X3010121D01*
X3025000Y1439879D01*
X2949053Y1325000D02*
X3200000D01*
X1800000Y975713D02*
Y977857D01*
X1750713Y1025000D02*
X1786932Y988780D01*
X1625000Y1025000D02*
X1750713D01*
X1550000Y950000D02*
X1625000Y1025000D01*
X1789076Y988780D02*
X1800000Y977857D01*
X1786932Y988780D02*
X1789076D01*
X2425000Y1550800D02*
Y1575000D01*
X2635121D01*
X2425000D02*
Y2075000D01*
X2650000Y1524053D02*
Y1560121D01*
X2635121Y1575000D02*
X2650000Y1560121D01*
X2375800Y1550800D02*
X2425000D01*
X2363067Y1538068D02*
X2375800Y1550800D01*
X2500000Y2150000D02*
X2777500D01*
X2425000Y2075000D02*
X2500000Y2150000D01*
X2360924Y1538068D02*
X2363067D01*
X2350000Y1527144D02*
X2360924Y1538068D01*
X2350000Y1525000D02*
Y1527144D01*
Y1449287D02*
Y1451431D01*
X2360924Y1462355D01*
X2363067D01*
X2368542Y1467829D01*
X2475000D01*
X2517829Y1425000D01*
X2550947D01*
X2550000Y755000D02*
Y757500D01*
X2535200Y740200D02*
X2550000Y755000D01*
X2532700Y740200D02*
X2535200D01*
X2492500Y700000D02*
X2532700Y740200D01*
X2114879Y825000D02*
X2225000D01*
X2200000Y800000D02*
X2225000Y825000D01*
X2100000Y839879D02*
Y890000D01*
X2075000Y915000D02*
X2100000Y890000D01*
Y839879D02*
X2114879Y825000D01*
X2200000Y475000D02*
Y800000D01*
X2977470Y1617911D02*
Y1682089D01*
X2975000Y1700000D02*
X3125000D01*
X3136250Y1838750D02*
X3147500Y1850000D01*
X3125000Y1700000D02*
X3136250Y1711250D01*
Y1838750D01*
X2975000Y1684559D02*
Y1700000D01*
Y1736905D01*
X2850000Y1861905D02*
X2975000Y1736905D01*
X2850000Y1861905D02*
Y1960000D01*
X2975000Y1684559D02*
X2977470Y1682089D01*
X2835000Y1975000D02*
X2850000Y1960000D01*
X3050000Y1852500D02*
X3052500Y1850000D01*
X3050000Y1852500D02*
Y2000000D01*
X2715000Y1975000D02*
Y2040000D01*
X2150000Y1360000D02*
X2465000D01*
X2500000Y1325000D02*
X2550947D01*
X2465000Y1360000D02*
X2500000Y1325000D01*
X2625000Y832379D02*
X2635121Y842500D01*
X2625000Y600000D02*
Y832379D01*
X2650000Y925000D02*
X2750000Y1025000D01*
X2650000Y857379D02*
Y925000D01*
X2635121Y842500D02*
X2650000Y857379D01*
X2550000Y842500D02*
X2635121D01*
X2500000Y575000D02*
X2525000Y600000D01*
X2625000D01*
X2750000Y1025000D02*
Y1125947D01*
X2765000Y655000D02*
Y825000D01*
X2727300Y617300D02*
X2765000Y655000D01*
X2727300Y614800D02*
Y617300D01*
X2712500Y600000D02*
X2727300Y614800D01*
X2710000Y600000D02*
X2712500D01*
X2800000Y975000D02*
Y1125947D01*
X2775000Y950000D02*
X2800000Y975000D01*
X2775000Y835000D02*
Y950000D01*
X2765000Y825000D02*
X2775000Y835000D01*
X1900000Y1200000D02*
X1910000Y1210000D01*
X2350000D01*
X2370000Y1200000D02*
X2492829D01*
X2517829Y1225000D01*
X2550947D01*
X2492829Y1400000D02*
X2517829Y1375000D01*
X2550947D01*
X2395000Y802500D02*
Y825000D01*
X2350000Y757500D02*
X2395000Y802500D01*
X2350000Y575000D02*
Y757500D01*
X2700000Y1050000D02*
Y1125947D01*
X2715000Y2040000D02*
X2750000Y2075000D01*
X2715000Y1707897D02*
Y1975000D01*
X3875000Y1225000D02*
Y1322530D01*
X3845000Y1195000D02*
X3875000Y1225000D01*
X3675000Y1195000D02*
X3845000D01*
X4242500Y2187500D02*
X4460121D01*
X4475000Y2172621D01*
Y2000000D02*
Y2172621D01*
X3075000Y1425000D02*
X3150000D01*
X3025000Y1375000D02*
X3075000Y1425000D01*
X2750000Y2075000D02*
X2975000D01*
X3050000Y2000000D01*
X2949053Y1275000D02*
X3225000D01*
X2949053Y1375000D02*
X3025000D01*
X4242500Y2312500D02*
X4255000Y2325000D01*
X1890000Y2550000D02*
X2400000D01*
X2605000Y2345000D01*
X3725000D01*
X1890000Y2550000D02*
Y2610000D01*
X2059651Y1069651D02*
X2075000Y1085000D01*
X1986779Y1069651D02*
X2059651D01*
X1950000Y1032872D02*
X1986779Y1069651D01*
X1950000Y925000D02*
Y1032872D01*
X1800000Y900000D02*
X1925000D01*
X1950000Y925000D01*
X3327500Y550000D02*
X3330000D01*
X3349800Y530200D01*
X1125000Y1325000D02*
Y1875000D01*
Y1325000D02*
X1250000Y1200000D01*
X1125000Y1875000D02*
X1275000Y2025001D01*
X1250000Y1200000D02*
X1720000D01*
X1275000Y2025001D02*
Y2360000D01*
X1890000Y2350000D02*
Y2550000D01*
X1800000Y2700000D02*
X1890000Y2610000D01*
X675000Y2700000D02*
X1800000D01*
X575000Y2600000D02*
X675000Y2700000D01*
X575000Y2380000D02*
Y2600000D01*
X2459221Y1290779D02*
X2475000Y1275000D01*
X2350000Y1290779D02*
X2459221D01*
X2475000Y1275000D02*
X2550947D01*
X2850000Y1025000D02*
X2935000Y940000D01*
X2850000Y1025000D02*
Y1125947D01*
D36*
X1125000Y2025000D02*
D03*
X425000D02*
D03*
D37*
X3475000Y900000D02*
D03*
X3625000Y1975000D02*
D03*
X2825000Y1750000D02*
D03*
X2558942Y1816058D02*
D03*
X1550000Y950000D02*
D03*
X3125000Y1700000D02*
D03*
X3875000Y1375000D02*
D03*
D38*
X3232062Y1589407D02*
D03*
X3150000Y1425000D02*
D03*
%TF.MD5,e9eceee7f4a530b86b0167a25ed55693*%
M02*
