%TF.GenerationSoftware,Altium Limited,Altium Designer,25.8.1 (18)*%
G04 Layer_Color=8421504*
%FSLAX45Y45*%
%MOMM*%
%TF.SameCoordinates,59470FF0-CD15-45DD-BB61-DC51C1D221A1*%
%TF.FilePolarity,Positive*%
%TF.FileFunction,Paste,Top*%
%TF.Part,Single*%
G01*
G75*
%TA.AperFunction,SMDPad,CuDef*%
%ADD10R,0.45000X0.45000*%
%ADD11R,1.00000X1.35000*%
%ADD12R,0.47247X0.51535*%
%ADD13R,1.70000X0.60000*%
%ADD14R,2.80000X1.00000*%
%ADD15R,1.80000X1.20000*%
%ADD16R,1.55000X0.60000*%
%ADD17R,0.85000X1.30000*%
%ADD18R,0.65000X0.70000*%
%ADD19R,0.70000X0.65000*%
%ADD20R,0.90000X0.75000*%
G04:AMPARAMS|DCode=21|XSize=0.23928mm|YSize=0.93106mm|CornerRadius=0.11964mm|HoleSize=0mm|Usage=FLASHONLY|Rotation=0.000|XOffset=0mm|YOffset=0mm|HoleType=Round|Shape=RoundedRectangle|*
%AMROUNDEDRECTD21*
21,1,0.23928,0.69178,0,0,0.0*
21,1,0.00000,0.93106,0,0,0.0*
1,1,0.23928,0.00000,-0.34589*
1,1,0.23928,0.00000,-0.34589*
1,1,0.23928,0.00000,0.34589*
1,1,0.23928,0.00000,0.34589*
%
%ADD21ROUNDEDRECTD21*%
G04:AMPARAMS|DCode=22|XSize=0.93106mm|YSize=0.23928mm|CornerRadius=0.11964mm|HoleSize=0mm|Usage=FLASHONLY|Rotation=0.000|XOffset=0mm|YOffset=0mm|HoleType=Round|Shape=RoundedRectangle|*
%AMROUNDEDRECTD22*
21,1,0.93106,0.00000,0,0,0.0*
21,1,0.69178,0.23928,0,0,0.0*
1,1,0.23928,0.34589,0.00000*
1,1,0.23928,-0.34589,0.00000*
1,1,0.23928,-0.34589,0.00000*
1,1,0.23928,0.34589,0.00000*
%
%ADD22ROUNDEDRECTD22*%
%ADD23R,0.93106X0.23928*%
%ADD25R,0.52000X0.52000*%
%ADD26R,0.80000X0.90000*%
%ADD27R,0.55000X0.60000*%
%ADD28R,0.45000X0.50000*%
%ADD29R,1.30000X0.85000*%
%ADD30R,2.20000X2.30000*%
%ADD31R,2.20000X2.50000*%
%ADD32R,0.45000X0.45000*%
%ADD33R,0.60000X0.55000*%
%ADD34R,0.75000X0.90000*%
%TA.AperFunction,NonConductor*%
%ADD56R,1.73925X1.73925*%
D10*
X1890000Y2350000D02*
D03*
X1960000D02*
D03*
D11*
X1720000Y1200000D02*
D03*
X1900000D02*
D03*
D12*
X1800000Y900000D02*
D03*
Y975713D02*
D03*
X2350000Y1449287D02*
D03*
Y1525000D02*
D03*
D13*
X4242500Y2312500D02*
D03*
Y2187500D02*
D03*
Y2062500D02*
D03*
Y1937500D02*
D03*
D14*
X4577500Y1752500D02*
D03*
Y2497500D02*
D03*
D15*
X4767500Y920000D02*
D03*
Y1280000D02*
D03*
D16*
X4380000Y1050000D02*
D03*
Y1150000D02*
D03*
D17*
X2225000Y825000D02*
D03*
X2395000D02*
D03*
X2765000D02*
D03*
X2935000D02*
D03*
D18*
X3725000Y2250000D02*
D03*
Y2345000D02*
D03*
D19*
X3145000Y2000000D02*
D03*
X3447500Y550000D02*
D03*
X2872500Y2150000D02*
D03*
X2777500D02*
D03*
X3352500Y550000D02*
D03*
X3052500Y1850000D02*
D03*
X3147500D02*
D03*
X3050000Y2000000D02*
D03*
D20*
X3675000Y1075000D02*
D03*
Y1195000D02*
D03*
D21*
X2800000Y1524053D02*
D03*
X2700000D02*
D03*
X2650000D02*
D03*
X2750000D02*
D03*
X2850000D02*
D03*
Y1125947D02*
D03*
X2800000D02*
D03*
X2750000D02*
D03*
X2700000D02*
D03*
X2650000D02*
D03*
D22*
X2949053Y1325000D02*
D03*
Y1425000D02*
D03*
Y1375000D02*
D03*
Y1275000D02*
D03*
Y1225000D02*
D03*
X2550947D02*
D03*
Y1275000D02*
D03*
Y1325000D02*
D03*
Y1375000D02*
D03*
D23*
Y1425000D02*
D03*
D25*
X2350000Y1210000D02*
D03*
Y1290000D02*
D03*
D26*
X2500000Y575000D02*
D03*
X2350000D02*
D03*
D27*
X2550000Y757500D02*
D03*
Y842500D02*
D03*
D28*
X2750000Y450000D02*
D03*
X2845000D02*
D03*
D29*
X2075000Y915000D02*
D03*
Y1085000D02*
D03*
D30*
X1275000Y2360000D02*
D03*
X875000Y2380000D02*
D03*
X575000D02*
D03*
D31*
X1425000Y1680000D02*
D03*
D32*
X2150000Y1360000D02*
D03*
Y1290000D02*
D03*
D33*
X2625000Y600000D02*
D03*
X2710000D02*
D03*
D34*
X2835000Y1975000D02*
D03*
X2715000D02*
D03*
D56*
X2750000Y1325000D02*
D03*
%TF.MD5,1c0f224acf3dc8c96b3db8f40b6c15dd*%
M02*
