%TF.GenerationSoftware,Altium Limited,Altium Designer,25.8.1 (18)*%
G04 Layer_Physical_Order=2*
G04 Layer_Color=16711680*
%FSLAX45Y45*%
%MOMM*%
%TF.SameCoordinates,59470FF0-CD15-45DD-BB61-DC51C1D221A1*%
%TF.FilePolarity,Positive*%
%TF.FileFunction,Copper,L2,Bot,Signal*%
%TF.Part,Single*%
G01*
G75*
%TA.AperFunction,Conductor*%
%ADD35C,0.25400*%
%TA.AperFunction,ComponentPad*%
%ADD36C,1.10000*%
%TA.AperFunction,ViaPad*%
%ADD37C,1.27000*%
%ADD38C,0.76200*%
D35*
X3275000Y900000D02*
X3475000D01*
X3250000Y925000D02*
X3275000Y900000D01*
X2582379Y925000D02*
X3250000D01*
X2550000Y957379D02*
X2582379Y925000D01*
X2550000Y957379D02*
Y1475000D01*
X3325000Y1975000D02*
X3625000D01*
X2925000Y1950000D02*
X3300000D01*
X3325000Y1975000D01*
X3625000Y1700000D02*
Y1975000D01*
X3514407Y1589407D02*
X3625000Y1700000D01*
X3232062Y1589407D02*
X3514407D01*
X1775000Y1450000D02*
X2141058Y1816058D01*
X2558942D01*
X1489879Y1450000D02*
X1775000D01*
X1475000Y1435121D02*
X1489879Y1450000D01*
X3157762Y1425000D02*
X3207762Y1375000D01*
X3875000D01*
X2892160Y1917160D02*
X2925000Y1950000D01*
X2550000Y1475000D02*
X2817160Y1742161D01*
X2809321Y1750000D02*
X2825000D01*
X3150000Y1425000D02*
X3157762D01*
X2892160Y1826524D02*
Y1917160D01*
X2825000Y1759365D02*
X2892160Y1826524D01*
X2825000Y1750000D02*
Y1759365D01*
X2558942Y1816058D02*
X2575000Y1800000D01*
X2759321D01*
X2809321Y1750000D01*
X1475000Y997642D02*
Y1435121D01*
X1522642Y950000D02*
X1550000D01*
X1475000Y997642D02*
X1522642Y950000D01*
X3125000Y1463747D02*
Y1700000D01*
Y1463747D02*
X3150000Y1438747D01*
Y1425000D02*
Y1438747D01*
D36*
X1125000Y2025000D02*
D03*
X425000D02*
D03*
D37*
X3475000Y900000D02*
D03*
X3625000Y1975000D02*
D03*
X2825000Y1750000D02*
D03*
X2558942Y1816058D02*
D03*
X1550000Y950000D02*
D03*
X3125000Y1700000D02*
D03*
X3875000Y1375000D02*
D03*
D38*
X3232062Y1589407D02*
D03*
X3150000Y1425000D02*
D03*
%TF.MD5,ae164eaf8533981911f86ef033e68de6*%
M02*
